<?xml version="1.0" encoding="UTF-8"?>
<svg version="1.1" xmlns="http://www.w3.org/2000/svg" width="626" height="626">
<path d="M0 0 C206.58 0 413.16 0 626 0 C626 206.58 626 413.16 626 626 C419.42 626 212.84 626 0 626 C0 419.42 0 212.84 0 0 Z " fill="#FEFEFE" transform="translate(0,0)"/>
<path d="M0 0 C4.18713153 1.92136771 7.34807741 3.9613365 10.6875 7.125 C15.06747873 11.17713601 19.57599003 14.99455945 24.21484375 18.74609375 C26.07044891 20.24775458 27.91688402 21.76081866 29.75390625 23.28515625 C47.01301928 37.59819024 65.24826157 48.49258065 85.56347656 57.85644531 C89.08535778 59.50940038 92.53940679 61.28591746 96 63.0625 C104.61577173 67.43703389 113.49469767 71.17204029 122.40234375 74.90625 C124.84672107 75.9354615 127.28375988 76.98005696 129.71875 78.03125 C137.41389815 81.33605516 145.12638861 84.43060032 153.01293945 87.25341797 C172.82289058 94.39289514 194.45307063 105.27064329 207 123 C207 123.66 207 124.32 207 125 C207.66 125 208.32 125 209 125 C208.4225 123.94039063 207.845 122.88078125 207.25 121.7890625 C206.49978212 120.40115942 205.74979399 119.01313213 205 117.625 C204.6184375 116.92632812 204.236875 116.22765625 203.84375 115.5078125 C201 110.2265625 201 110.2265625 201 108 C226.16111851 117.62184264 248.08320839 134.19643247 268 152 C269.04414062 152.91652344 269.04414062 152.91652344 270.109375 153.8515625 C282.87970435 165.74319946 293.67904589 185.27460997 295.23828125 202.65625 C295.25 204.875 295.25 204.875 295 208 C295.66 208 296.32 208 297 208 C297.33 202.06 297.66 196.12 298 190 C302.0143385 194.0143385 303.93775719 196.22389349 306.41015625 201.0078125 C307.00763672 202.16023437 307.60511719 203.31265625 308.22070312 204.5 C308.52371338 205.09683594 308.82672363 205.69367188 309.13891602 206.30859375 C310.05256548 208.10546185 310.9829282 209.89285096 311.91601562 211.6796875 C319.47542902 226.38989735 323.4795653 239.40171225 323 256 C323 256.66 323 257.32 323 258 C323.33 258 323.66 258 324 258 C324.43373365 264.93973832 324.02691954 271.43384301 319.35546875 276.9375 C317.7913579 278.89508277 317.7913579 278.89508277 318.0390625 281.19921875 C318.23242188 282.02035156 318.42578125 282.84148437 318.625 283.6875 C318.83382813 284.66074219 319.04265625 285.63398438 319.2578125 286.63671875 C319.50273437 287.74660156 319.74765625 288.85648437 320 290 C325.34198875 317.58153138 331.7698746 352.15682561 318 378 C317.34 378 316.68 378 316 378 C315.98541748 377.00186279 315.97083496 376.00372559 315.95581055 374.9753418 C314.75419279 298.20352091 301.60749492 228.78401913 244.24609375 173.05859375 C239.99575971 169.1630702 235.53974646 165.55008173 231 162 C230.32775391 161.4726123 229.65550781 160.94522461 228.96289062 160.40185547 C226.73085367 158.65640257 224.49187329 156.92029739 222.25 155.1875 C221.18652344 154.36040527 221.18652344 154.36040527 220.1015625 153.51660156 C215.88136491 150.28230219 211.66002498 147.55771826 207 145 C205.84550103 144.31044324 204.69454075 143.61493319 203.546875 142.9140625 C183.0847471 130.52427546 161.55651661 120.20338218 139.91577148 110.07421875 C128.85150721 104.89433778 117.87814244 99.56206529 107 94 C115.44888363 99.30759939 124.24890938 103.84021256 133.125 108.375 C134.53400448 109.09866574 135.94285937 109.82262281 137.3515625 110.546875 C144.36024846 114.14490398 151.38851853 117.70036643 158.44140625 121.2109375 C184.60194208 134.24774676 209.46997098 149.27211298 231.43041992 168.63745117 C232.99951994 169.99958326 234.59811361 171.31809694 236.20703125 172.6328125 C238.44807784 174.53221702 240.31671885 176.32057191 242.1875 178.5625 C244.21107503 180.95359523 246.25464957 183.26323326 248.43359375 185.515625 C256.23587476 193.62365578 262.4507881 202.51365717 268.61816406 211.90869141 C269.71849399 213.57396104 270.85013698 215.21852968 271.9921875 216.85546875 C281.47624927 230.7639134 288.30858122 247.11283165 293.39892578 263.11279297 C293.99638864 264.98866132 294.62118071 266.85575303 295.24609375 268.72265625 C296.97692031 274.03491631 298.21688645 278.36929401 298 284 C294.64404172 283.40072174 292.62198774 282.15377564 290 280 C290.99 280 291.98 280 293 280 C293 279.34 293 278.68 293 278 C291.7625 277.896875 290.525 277.79375 289.25 277.6875 C285.74893242 277.24676277 283.47641749 276.68278561 281 274 C281 273.01 281 272.02 281 271 C279.37576664 269.29195388 277.70065752 267.63196801 276 266 C270.96493799 259.96925852 266.3434147 253.85803618 262.5 247 C259.02329401 240.82278285 254.86675253 235.31107169 250.44042969 229.79638672 C248.89020278 227.86306984 247.35558788 225.91786218 245.8203125 223.97265625 C240.13649659 216.82570475 234.40051242 210.07679225 227.73046875 203.8203125 C226 202 226 202 226 200 C224.68 199.34 223.36 198.68 222 198 C223.27499345 195.4500131 224.18491352 195.34023585 226.8125 194.375 C227.49957031 194.11460937 228.18664062 193.85421875 228.89453125 193.5859375 C231 193 231 193 235 193 C235 192.34 235 191.68 235 191 C234.0925 191.061875 233.185 191.12375 232.25 191.1875 C217.03461717 191.065533 203.68934443 182.8988309 192.328125 173.52734375 C188.17579332 170.22643655 183.56985497 167.67200803 179 165 C177.37866431 164.0260031 175.75884523 163.04947677 174.140625 162.0703125 C159.84858006 153.45731174 145.49007077 144.9889284 130.6875 137.2734375 C116.02606989 129.61604174 101.84848201 121.04086767 88 112 C86.90300781 111.29746094 85.80601562 110.59492188 84.67578125 109.87109375 C83.55427863 109.14385931 82.43317716 108.41600584 81.3125 107.6875 C80.29800781 107.03136719 79.28351563 106.37523437 78.23828125 105.69921875 C77.49964844 105.13847656 76.76101562 104.57773437 76 104 C76 103.34 76 102.68 76 102 C78.97 101.01 81.94 100.02 85 99 C83.96166016 98.70609375 83.96166016 98.70609375 82.90234375 98.40625 C49.53849889 88.20807871 26.17173709 60.65808566 10.125 30.7578125 C9.22068627 29.00956898 8.3245995 27.25704104 7.4375 25.5 C7.03200928 24.69997559 6.62651855 23.89995117 6.20874023 23.07568359 C2.68368469 15.85197604 -0.64574388 8.17942245 0 0 Z " fill="#030303" transform="translate(122,154)"/>
<path d="M0 0 C4.12306276 1.28736177 7.88381087 2.83313045 11.7265625 4.80078125 C12.82621338 5.35894531 13.92586426 5.91710937 15.05883789 6.4921875 C15.63876495 6.78834961 16.21869202 7.08451172 16.81619263 7.38964844 C27.13272853 12.65313388 37.52610823 17.68795233 48.0625 22.5 C66.5275464 30.97175445 84.96889121 39.87402268 102 51 C102.9075 51.55558594 103.815 52.11117187 104.75 52.68359375 C125.39334628 65.38042463 143.94804882 82.08368101 159 101 C160.01835889 102.25225639 161.0379561 103.50350645 162.05859375 104.75390625 C163.12265592 106.06489311 164.18646008 107.37608943 165.25 108.6875 C165.74540283 109.29287598 166.24080566 109.89825195 166.7512207 110.52197266 C176 122.00246513 176 122.00246513 176 126 C175.34 126 174.68 126 174 126 C173.34 127.65 172.68 129.3 172 131 C168.23474885 127.4783053 165.43493022 123.8469674 162.75 119.4375 C156.24097888 109.07592306 148.96249564 99.68826291 140.578125 90.7890625 C138.77225112 88.8354353 137.06161813 86.89220158 135.37890625 84.83984375 C132.23514851 81.08695069 128.75204386 78.12953281 125 75 C124.47035645 74.54737793 123.94071289 74.09475586 123.39501953 73.62841797 C107.64072323 60.18260301 90.30434056 49.44364748 72.29394531 39.29541016 C70.06179193 38.03489442 67.83905094 36.75901298 65.6171875 35.48046875 C56.47591433 30.2640537 47.14639933 25.60329847 37.62719727 21.11645508 C10.41833876 8.25802006 10.41833876 8.25802006 0 1 C0 0.67 0 0.34 0 0 Z " fill="#F2F2F2" transform="translate(227,247)"/>
<path d="M0 0 C4.12306276 1.28736177 7.88381087 2.83313045 11.7265625 4.80078125 C12.82621338 5.35894531 13.92586426 5.91710937 15.05883789 6.4921875 C15.63876495 6.78834961 16.21869202 7.08451172 16.81619263 7.38964844 C27.13272853 12.65313388 37.52610823 17.68795233 48.0625 22.5 C66.52699239 30.97150027 84.97068248 39.87217872 102 51 C103.01191406 51.62519531 104.02382813 52.25039063 105.06640625 52.89453125 C109.50985111 55.6463387 113.39970193 58.17520297 117 62 C114.28515625 63.19140625 114.28515625 63.19140625 111 64 C108.74609375 62.90234375 108.74609375 62.90234375 106.4375 60.9375 C87.41316249 46.02998822 65.17438191 34.91004075 43.56762695 24.26538086 C36.67474 20.8649376 29.83689913 17.35749296 23.00180054 13.8427124 C21.59676792 13.12083156 20.19103822 12.40030571 18.78457642 11.68121338 C16.78942657 10.66083156 14.79679372 9.6356837 12.8046875 8.609375 C11.63921387 8.01092773 10.47374023 7.41248047 9.27294922 6.79589844 C6.02024003 5.0111059 3.01775981 3.15300823 0 1 C0 0.67 0 0.34 0 0 Z " fill="#E7E7E7" transform="translate(227,247)"/>
<path d="M0 0 C4.19635785 1.40071531 6.90726452 4.12449733 10.14453125 7.0703125 C10.80807617 7.66126709 11.47162109 8.25222168 12.15527344 8.86108398 C13.4648722 10.02775618 14.77145254 11.1978271 16.07470703 12.37158203 C18.77799771 14.79245057 21.55040631 17.1318607 24.31640625 19.48046875 C26.05424539 21.16008132 27.42963288 22.98110996 28.83203125 24.9453125 C27.84203125 25.2753125 26.85203125 25.6053125 25.83203125 25.9453125 C25.83203125 26.6053125 25.83203125 27.2653125 25.83203125 27.9453125 C26.49203125 27.9453125 27.15203125 27.9453125 27.83203125 27.9453125 C27.50203125 29.2653125 27.17203125 30.5853125 26.83203125 31.9453125 C26.41953125 31.44902344 26.00703125 30.95273437 25.58203125 30.44140625 C21.99590616 26.22290643 18.29883279 22.45005649 14.078125 18.87109375 C10.45285658 15.76282013 6.96114882 12.50824977 3.4453125 9.27734375 C0.85083625 6.90464617 0.85083625 6.90464617 -2 4.76953125 C-3.07314453 3.86654297 -3.07314453 3.86654297 -4.16796875 2.9453125 C-4.16796875 2.2853125 -4.16796875 1.6253125 -4.16796875 0.9453125 C-2.16796875 -0.0546875 -2.16796875 -0.0546875 0 0 Z " fill="#E9E9E9" transform="translate(344.16796875,309.0546875)"/>
<path d="M0 0 C4.12306276 1.28736177 7.88381087 2.83313045 11.7265625 4.80078125 C12.82758301 5.35967041 13.92860352 5.91855957 15.06298828 6.49438477 C16.23845215 7.09436279 17.41391602 7.69434082 18.625 8.3125 C29.83959278 13.9958149 41.1551945 19.41056301 52.58447266 24.64770508 C59.12105172 27.64504833 65.59403022 30.73210802 72 34 C71.01 34.495 71.01 34.495 70 35 C70 35.66 70 36.32 70 37 C65.95753263 35.77376534 62.6295469 34.31045406 59.0625 32.0625 C53.18894389 28.550026 47.12725514 25.60158416 40.9375 22.6875 C10.55631402 8.35414165 10.55631402 8.35414165 0 1 C0 0.67 0 0.34 0 0 Z " fill="#DDDDDD" transform="translate(227,247)"/>
<path d="M0 0 C3 2 3 2 3.75 3.9375 C4 6 4 6 3 9 C1.66666667 9.33333333 0.33333333 9.66666667 -1 10 C-1.33 10.99 -1.66 11.98 -2 13 C-0.68 13.99 0.64 14.98 2 16 C-1 17 -1 17 -3.71484375 15.8125 C-4.77832031 15.214375 -5.84179688 14.61625 -6.9375 14 C-8.08476562 13.35933594 -9.23203125 12.71867187 -10.4140625 12.05859375 C-11.6104382 11.37425119 -12.8057482 10.68804229 -14 10 C-14.58749023 9.66242676 -15.17498047 9.32485352 -15.78027344 8.97705078 C-19.19993975 7.00667162 -22.60499585 5.01253399 -26 3 C-24.30078125 1.82421875 -24.30078125 1.82421875 -22 1 C-19.66796875 2.08203125 -19.66796875 2.08203125 -17.1875 3.8125 C-12.91871769 6.56391279 -10.09068725 8 -5 8 C-1.88866379 6.37985297 -1.88866379 6.37985297 -1.375 4 C-1.25125 3.34 -1.1275 2.68 -1 2 C-0.67 1.34 -0.34 0.68 0 0 Z M4 3 C4.99 3.495 4.99 3.495 6 4 C5.01 4.495 5.01 4.495 4 5 C4 4.34 4 3.68 4 3 Z " fill="#161616" transform="translate(255,275)"/>
<path d="M0 0 C0.33 0 0.66 0 1 0 C2.20615978 7.59398196 2.18370155 15.13583983 2.1875 22.8125 C2.1996611 24.14778838 2.21202931 25.48307488 2.22460938 26.81835938 C2.22654297 28.08099609 2.22847656 29.34363281 2.23046875 30.64453125 C2.23457764 31.79284424 2.23868652 32.94115723 2.24291992 34.12426758 C2 37 2 37 0 40 C-1.18126804 36.45619587 -1.12955082 33.62209129 -1.1328125 29.8828125 C-1.13376923 29.18864227 -1.13472595 28.49447205 -1.13571167 27.77926636 C-1.13639158 26.31166493 -1.13455045 24.84406048 -1.13037109 23.37646484 C-1.12503633 21.14022991 -1.13031404 18.90419731 -1.13671875 16.66796875 C-1.13605762 15.23958289 -1.13477573 13.81119716 -1.1328125 12.3828125 C-1.13168457 11.08746582 -1.13055664 9.79211914 -1.12939453 8.45751953 C-1.01854985 5.49566603 -0.69277787 2.87224191 0 0 Z " fill="#323232" transform="translate(445,472)"/>
<path d="M0 0 C4.36420714 1.35134308 8.32296407 3.04979095 12.39453125 5.1171875 C12.98618576 5.41561554 13.57784027 5.71404358 14.18742371 6.02151489 C16.06441831 6.96884269 17.93863507 7.92149857 19.8125 8.875 C27.46808787 12.7601037 35.11049618 16.60538106 43 20 C42.34 20.99 41.68 21.98 41 23 C39.9584375 22.443125 38.916875 21.88625 37.84375 21.3125 C30.42190055 17.35767088 22.98226821 13.46569036 15.4375 9.75 C10.08971319 7.10660975 4.92168634 4.38365936 0 1 C0 0.67 0 0.34 0 0 Z " fill="#CBCBCB" transform="translate(227,247)"/>
<path d="M0 0 C11.02446483 1.81957187 11.02446483 1.81957187 15 5 C15 5.66 15 6.32 15 7 C13.35 6.67 11.7 6.34 10 6 C12.97 7.65 15.94 9.3 19 11 C18.34 11.66 17.68 12.32 17 13 C10.125 10.25 10.125 10.25 9 8 C8.4225 7.7525 7.845 7.505 7.25 7.25 C3.99368694 5.44093719 2.28964624 2.92565908 0 0 Z M6 8 C6.99 8 7.98 8 9 8 C8.67 8.66 8.34 9.32 8 10 C7.34 9.34 6.68 8.68 6 8 Z " fill="#121212" transform="translate(220,243)"/>
<path d="M0 0 C3.0625 1.3125 3.0625 1.3125 6 3 C6.99 3.33 7.98 3.66 9 4 C9 4.66 9 5.32 9 6 C10.0725 6.0825 11.145 6.165 12.25 6.25 C16.2738451 7.05476902 17.48169253 7.87729874 20 11 C16.26124672 12.24625109 15.56408688 11.60418811 12.11328125 9.91015625 C11.17548828 9.45576172 10.23769531 9.00136719 9.27148438 8.53320312 C8.29501953 8.04787109 7.31855469 7.56253906 6.3125 7.0625 C5.32443359 6.58103516 4.33636719 6.09957031 3.31835938 5.60351562 C0.87445756 4.41108044 -1.56458242 3.20964449 -4 2 C-2.19140625 0.91796875 -2.19140625 0.91796875 0 0 Z " fill="#161616" transform="translate(280,269)"/>
<path d="M0 0 C4.24292532 1.60630825 8.27025107 3.5768162 12.3125 5.625 C12.95767578 5.94984375 13.60285156 6.2746875 14.26757812 6.609375 C15.84597541 7.40441956 17.42311694 8.20195634 19 9 C18.67 9.66 18.34 10.32 18 11 C14.95612845 9.98537615 11.91275335 8.97033614 8.875 7.9375 C6.14219847 6.93868419 6.14219847 6.93868419 3.75 6.75 C2 6 2 6 0.75 2.9375 C0.5025 1.968125 0.255 0.99875 0 0 Z " fill="#191919" transform="translate(323,262)"/>
<path d="M0 0 C0.86286621 0.43481689 0.86286621 0.43481689 1.74316406 0.87841797 C3.85389856 1.92739182 5.97602353 2.94328378 8.109375 3.9453125 C8.86347656 4.29980469 9.61757812 4.65429688 10.39453125 5.01953125 C11.17183594 5.38433594 11.94914063 5.74914062 12.75 6.125 C13.54277344 6.49753906 14.33554688 6.87007812 15.15234375 7.25390625 C17.10135725 8.16970777 19.05065109 9.08491263 21 10 C19.25683594 11.11083984 19.25683594 11.11083984 17 12 C14.98535156 11.40087891 14.98535156 11.40087891 12.890625 10.2265625 C12.13652344 9.8140625 11.38242188 9.4015625 10.60546875 8.9765625 C9.82816406 8.53054687 9.05085937 8.08453125 8.25 7.625 C7.45722656 7.18671875 6.66445312 6.7484375 5.84765625 6.296875 C3.89002792 5.21192436 1.94188219 4.11281376 0 3 C0 2.01 0 1.02 0 0 Z " fill="#202020" transform="translate(180,238)"/>
<path d="M0 0 C0.33 0 0.66 0 1 0 C1.01981934 0.74685059 1.03963867 1.49370117 1.06005859 2.26318359 C1.15508211 5.63415605 1.26485259 9.00448929 1.375 12.375 C1.4059375 13.550625 1.436875 14.72625 1.46875 15.9375 C1.52675781 17.61972656 1.52675781 17.61972656 1.5859375 19.3359375 C1.6173584 20.37282715 1.6487793 21.4097168 1.68115234 22.47802734 C1.75954472 25.16809835 1.75954472 25.16809835 4 27 C3.67028521 30.29714793 3.3773161 31.6226839 1 34 C0 33 0 33 -0.11352539 29.85717773 C-0.11336633 28.46597303 -0.10767506 27.07476239 -0.09765625 25.68359375 C-0.0962413 24.95253922 -0.09482635 24.22148468 -0.09336853 23.46827698 C-0.08775408 21.12464368 -0.07519922 18.78110461 -0.0625 16.4375 C-0.05748686 14.85221492 -0.05292363 13.26692834 -0.04882812 11.68164062 C-0.03777997 7.7877239 -0.02050572 3.89387795 0 0 Z " fill="#202020" transform="translate(439,496)"/>
<path d="M0 0 C0.99 0 1.98 0 3 0 C3 0.99 3 1.98 3 3 C1.02 3.66 -0.96 4.32 -3 5 C-3 5.66 -3 6.32 -3 7 C-1.68 7.33 -0.36 7.66 1 8 C0.67 8.99 0.34 9.98 0 11 C-3.11373372 9.50079488 -6.12228205 7.91847864 -9 6 C-9 5.34 -9 4.68 -9 4 C-6.03 3.01 -3.06 2.02 0 1 C0 0.67 0 0.34 0 0 Z " fill="#222222" transform="translate(207,252)"/>
<path d="M0 0 C5.07648175 2.78387709 9.4833069 6.40829416 14 10 C13.34 10.66 12.68 11.32 12 12 C9.99074195 11.01873444 7.99242489 10.0150089 6 9 C5.05125 8.525625 4.1025 8.05125 3.125 7.5625 C2.42375 7.046875 1.7225 6.53125 1 6 C1 4.68 1 3.36 1 2 C0.34 1.67 -0.32 1.34 -1 1 C-0.67 0.67 -0.34 0.34 0 0 Z " fill="#121212" transform="translate(144,172)"/>
<path d="M0 0 C0.99 0.33 1.98 0.66 3 1 C3.6875 3.0625 3.6875 3.0625 4 5 C4.66 5 5.32 5 6 5 C7.01351664 6.65848177 8.01120795 8.32665961 9 10 C10.051875 10.99 10.051875 10.99 11.125 12 C13.30904742 14.32965058 13.65253717 15.8728345 14 19 C10.52519643 15.60543168 7.29123427 12.11183429 4.1875 8.375 C3.00220703 6.96347656 3.00220703 6.96347656 1.79296875 5.5234375 C0 3 0 3 0 0 Z " fill="#171717" transform="translate(146,204)"/>
<path d="M0 0 C5.75 2.625 5.75 2.625 8 6 C7.01 6 6.02 6 5 6 C3.70381628 8.08871203 3.70381628 8.08871203 4.5625 11 C4.706875 11.99 4.85125 12.98 5 14 C4.34 14.66 3.68 15.32 3 16 C-0.44419134 5.62642369 -0.44419134 5.62642369 0 0 Z " fill="#1E1E1E" transform="translate(122,154)"/>
<path d="M0 0 C4.0353881 2.23046906 7.24551593 4.87188252 10.625 8 C12.03652344 9.299375 12.03652344 9.299375 13.4765625 10.625 C15.35106708 12.3892396 17.19845605 14.16218335 19 16 C11.64254383 14.07304719 7.18249801 9.32256553 2 4 C1.401875 3.401875 0.80375 2.80375 0.1875 2.1875 C-0.204375 1.795625 -0.59625 1.40375 -1 1 C-0.67 0.67 -0.34 0.34 0 0 Z " fill="#1D1D1D" transform="translate(342,314)"/>
<path d="M0 0 C2.23235697 1.24456167 4.46079662 2.4953939 6.6875 3.75 C7.31333984 4.09804688 7.93917969 4.44609375 8.58398438 4.8046875 C12.33744549 6.92706342 15.69859272 9.19727565 19 12 C18.01 12.495 18.01 12.495 17 13 C14.90625 12.00390625 14.90625 12.00390625 12.5 10.5625 C9.44852141 8.58435653 9.44852141 8.58435653 6 8 C5.34 7.01 4.68 6.02 4 5 C1.44816596 3.79549696 1.44816596 3.79549696 -1 3 C-0.67 2.01 -0.34 1.02 0 0 Z " fill="#171717" transform="translate(302,287)"/>
<path d="M0 0 C0.99 0 1.98 0 3 0 C5.77442708 3.00016786 7.40362952 6.60297591 9.1875 10.25 C9.71730469 11.32765625 10.24710938 12.4053125 10.79296875 13.515625 C11.19128906 14.33546875 11.58960938 15.1553125 12 16 C11.34 16.33 10.68 16.66 10 17 C8.32972219 14.35642999 6.6643902 11.70978008 5 9.0625 C4.52304688 8.30775391 4.04609375 7.55300781 3.5546875 6.77539062 C3.10351562 6.05673828 2.65234375 5.33808594 2.1875 4.59765625 C1.76855469 3.93258057 1.34960938 3.26750488 0.91796875 2.58227539 C0 1 0 1 0 0 Z " fill="#151515" transform="translate(134,187)"/>
<path d="M0 0 C0.33 0.66 0.66 1.32 1 2 C1.66 2 2.32 2 3 2 C4.59138085 6.17737474 5.21278058 9.53160785 5 14 C1.64404172 13.40072174 -0.37801226 12.15377564 -3 10 C-2.01 10 -1.02 10 0 10 C1.231394 6.30581799 0.64432764 3.7943739 0 0 Z " fill="#1F1F1F" transform="translate(415,424)"/>
<path d="M0 0 C4.20532472 1.52394795 6.25004166 4.6152865 8.75 8.125 C9.36681641 8.96998047 9.36681641 8.96998047 9.99609375 9.83203125 C11.00476085 11.21601634 12.00339286 12.60730541 13 14 C12.34 14.66 11.68 15.32 11 16 C10.67 15.01 10.34 14.02 10 13 C9.34 13 8.68 13 8 13 C6.55473264 11.26451831 5.1912778 9.46024037 3.875 7.625 C3.15054687 6.62726563 2.42609375 5.62953125 1.6796875 4.6015625 C0 2 0 2 0 0 Z " fill="#222222" transform="translate(373,345)"/>
<path d="M0 0 C2.125 -0.3125 2.125 -0.3125 5 0 C6.53753435 1.18518273 8.07338174 2.37941806 9.5078125 3.6875 C11.49839177 5.43837601 13.69209716 6.71028959 16 8 C15.67 8.99 15.34 9.98 15 11 C9.66262898 8.10892403 4.64928097 4.9247177 0 1 C0 0.67 0 0.34 0 0 Z " fill="#292929" transform="translate(312,325)"/>
<path d="M0 0 C5.97234481 3.12442113 12.02995969 6.38206064 17 11 C17 11.66 17 12.32 17 13 C15.68 13 14.36 13 13 13 C13 12.01 13 11.02 13 10 C11.91138672 9.60167969 11.91138672 9.60167969 10.80078125 9.1953125 C7.99829072 7.99927052 5.69520648 6.59670893 3.1875 4.875 C2.39730469 4.33617187 1.60710937 3.79734375 0.79296875 3.2421875 C0.20128906 2.83226562 -0.39039063 2.42234375 -1 2 C-0.67 1.34 -0.34 0.68 0 0 Z " fill="#191919" transform="translate(348,275)"/>
<path d="M0 0 C3.44088272 3.24426085 6.22532218 6.53947981 8.88671875 10.44921875 C10.04993106 12.15796586 10.04993106 12.15796586 12 14 C10.68 14 9.36 14 8 14 C6.22331107 12.02328648 4.74918047 10.16819586 3.25 8 C2.83878906 7.42765625 2.42757813 6.8553125 2.00390625 6.265625 C0.99087007 4.85208615 -0.0061373 3.4270849 -1 2 C-0.67 1.34 -0.34 0.68 0 0 Z " fill="#1D1D1D" transform="translate(392,409)"/>
<path d="M0 0 C5.94 1.98 11.88 3.96 18 6 C15 8 15 8 12.94921875 7.86328125 C8.28389563 6.72716629 4.22035695 5.38071418 0 3 C0 2.01 0 1.02 0 0 Z " fill="#242424" transform="translate(332,336)"/>
<path d="M0 0 C1.98 1.65 3.96 3.3 6 5 C5.67 5.66 5.34 6.32 5 7 C4.34 7 3.68 7 3 7 C3 7.66 3 8.32 3 9 C3.66 9 4.32 9 5 9 C4.67 10.32 4.34 11.64 4 13 C0.38860104 9.38860104 0.38860104 9.38860104 -1 7 C-0.8125 3.125 -0.8125 3.125 0 0 Z " fill="#E7E7E7" transform="translate(367,328)"/>
<path d="M0 0 C0.763125 0.309375 1.52625 0.61875 2.3125 0.9375 C4.18789677 1.67893593 6.08684652 2.36228217 8 3 C8 3.66 8 4.32 8 5 C8.804375 5.28875 9.60875 5.5775 10.4375 5.875 C13 7 13 7 14 9 C9.93774452 8.42176904 7.15237654 7.10882263 3.6875 4.9375 C2.80449219 4.38964844 1.92148437 3.84179688 1.01171875 3.27734375 C0.34785156 2.85582031 -0.31601562 2.43429687 -1 2 C-0.67 1.34 -0.34 0.68 0 0 Z " fill="#1B1B1B" transform="translate(299,315)"/>
<path d="M0 0 C2 1 2 1 4 4 C4.53625 4.680625 5.0725 5.36125 5.625 6.0625 C7 8 7 8 7 10 C5.35 10.66 3.7 11.32 2 12 C0.70756464 7.8803623 -0.26252625 4.33168317 0 0 Z " fill="#191919" transform="translate(343,283)"/>
<path d="M0 0 C2.16235504 3.24353256 2.21879428 3.61944481 1.7578125 7.23046875 C1.66113281 8.03291016 1.56445312 8.83535156 1.46484375 9.66210938 C1.35269531 10.49548828 1.24054688 11.32886719 1.125 12.1875 C1.02058594 13.03248047 0.91617187 13.87746094 0.80859375 14.74804688 C0.54940443 16.83334275 0.27605197 18.91686936 0 21 C-0.66 21 -1.32 21 -2 21 C-2.33 17.37 -2.66 13.74 -3 10 C-2.01 10 -1.02 10 0 10 C0 6.7 0 3.4 0 0 Z " fill="#A6A6A6" transform="translate(419,341)"/>
<path d="M0 0 C1.82875404 2.74313106 2.72037028 4.77074949 3.6875 7.875 C3.95949219 8.71804688 4.23148437 9.56109375 4.51171875 10.4296875 C5.05258938 13.27683047 4.7420711 15.22096865 4 18 C3.67 18 3.34 18 3 18 C2.30391966 15.37700199 1.61784618 12.7520793 0.9375 10.125 C0.73833984 9.37863281 0.53917969 8.63226563 0.33398438 7.86328125 C-1.11328125 2.2265625 -1.11328125 2.2265625 0 0 Z " fill="#222222" transform="translate(439,379)"/>
<path d="M0 0 C4.30764815 1.56641751 8.06171464 3.68336156 12 6 C11.67 6.99 11.34 7.98 11 9 C6.71 6.69 2.42 4.38 -2 2 C-1.34 1.34 -0.68 0.68 0 0 Z " fill="#202020" transform="translate(263,294)"/>
<path d="M0 0 C5.61946506 3.4524818 10.0679294 6.67267854 14 12 C13.01 12.495 13.01 12.495 12 13 C9.95880212 11.38405168 7.95927063 9.7143618 6 8 C6 7.34 6 6.68 6 6 C5.38125 5.7525 4.7625 5.505 4.125 5.25 C1.62519797 3.77952822 1.16683978 2.58596924 0 0 Z " fill="#121212" transform="translate(310,260)"/>
<path d="M0 0 C4.9723422 1.49170266 9.41845739 3.60457417 14 6 C13.01 6.495 13.01 6.495 12 7 C11.67 7.66 11.34 8.32 11 9 C9.37284844 8.04532436 7.74834654 7.08613152 6.125 6.125 C5.22007812 5.59132813 4.31515625 5.05765625 3.3828125 4.5078125 C1 3 1 3 -1 1 C-0.67 0.67 -0.34 0.34 0 0 Z " fill="#1F1F1F" transform="translate(278,303)"/>
<path d="M0 0 C0.99 0 1.98 0 3 0 C4.98 4.29 6.96 8.58 9 13 C8.01 13.495 8.01 13.495 7 14 C5.82807953 12.04480616 4.6626071 10.0857461 3.5 8.125 C2.8503125 7.03445313 2.200625 5.94390625 1.53125 4.8203125 C0 2 0 2 0 0 Z " fill="#1B1B1B" transform="translate(425,354)"/>
<path d="M0 0 C5.6868961 2.08906387 9.59469939 4.86249881 14 9 C13.34 9.66 12.68 10.32 12 11 C11.13375 10.2575 10.2675 9.515 9.375 8.75 C7.20792377 6.92862403 5.01834185 5.32258474 2.625 3.8125 C1.75875 3.214375 0.8925 2.61625 0 2 C0 1.34 0 0.68 0 0 Z " fill="#191919" transform="translate(368,290)"/>
<path d="M0 0 C4.27878027 2.03751441 8.11282869 4.31600076 12 7 C11.67 7.66 11.34 8.32 11 9 C9.02 8.34 7.04 7.68 5 7 C5 6.34 5 5.68 5 5 C2.525 4.01 2.525 4.01 0 3 C0 2.01 0 1.02 0 0 Z " fill="#191919" transform="translate(170,192)"/>
<path d="M0 0 C3.85103301 0.53675903 5.31797587 2.11600923 7.75 5.0625 C8.36359375 5.79597656 8.9771875 6.52945312 9.609375 7.28515625 C10.06828125 7.85105469 10.5271875 8.41695313 11 9 C10.01 10.485 10.01 10.485 9 12 C4 6.25 4 6.25 4 4 C2.68 3.34 1.36 2.68 0 2 C0 1.34 0 0.68 0 0 Z " fill="#1D1D1D" transform="translate(361,332)"/>
<path d="M0 0 C11.02446483 1.81957187 11.02446483 1.81957187 15 5 C15 5.66 15 6.32 15 7 C13.24593347 6.60079865 11.49681018 6.17984334 9.75 5.75 C8.77546875 5.51796875 7.8009375 5.2859375 6.796875 5.046875 C3.68476589 3.88200734 2.15787544 2.48669455 0 0 Z " fill="#464646" transform="translate(220,243)"/>
<path d="M0 0 C2 3 2 3 1.86328125 5.15625 C1.68152344 5.9296875 1.49976563 6.703125 1.3125 7.5 C1.14363281 8.2734375 0.97476562 9.046875 0.80078125 9.84375 C-0.07960048 12.21433885 -1.09992728 13.36687964 -3 15 C-3 11.8614471 -2.83605267 9.86796594 -2.0625 6.9375 C-1.88847656 6.26589844 -1.71445312 5.59429687 -1.53515625 4.90234375 C-1.07144356 3.25396361 -0.54149668 1.62449004 0 0 Z " fill="#262626" transform="translate(444,416)"/>
<path d="M0 0 C3.4375 0.25 3.4375 0.25 7 1 C7.66 1.99 8.32 2.98 9 4 C6.69 4.33 4.38 4.66 2 5 C1.01 3.68 0.02 2.36 -1 1 C-0.67 0.67 -0.34 0.34 0 0 Z " fill="#F2F2F2" transform="translate(351,318)"/>
<path d="M0 0 C8.44646925 6.15034169 8.44646925 6.15034169 12 10 C11.01 10.495 11.01 10.495 10 11 C9.34 10.67 8.68 10.34 8 10 C8 9.34 8 8.68 8 8 C7.4225 7.731875 6.845 7.46375 6.25 7.1875 C3.92636635 5.9611378 1.96175354 4.75156566 0 3 C0 2.01 0 1.02 0 0 Z " fill="#191919" transform="translate(130,160)"/>
<path d="M0 0 C1.51953125 1.08203125 1.51953125 1.08203125 3 3 C3.07421875 6.13671875 3.07421875 6.13671875 2.6875 9.6875 C2.50767578 11.45673828 2.50767578 11.45673828 2.32421875 13.26171875 C2.21722656 14.16535156 2.11023438 15.06898438 2 16 C1.67 16 1.34 16 1 16 C-0.12862175 10.63904667 -0.09688221 5.44693314 0 0 Z " fill="#1D1D1D" transform="translate(442,458)"/>
<path d="M0 0 C1.32 0 2.64 0 4 0 C4 0.66 4 1.32 4 2 C5.423125 2.4021875 5.423125 2.4021875 6.875 2.8125 C10 4 10 4 12 7 C11.34 7.66 10.68 8.32 10 9 C8.33043913 7.69118353 6.66441696 6.37785174 5 5.0625 C4.071875 4.33160156 3.14375 3.60070312 2.1875 2.84765625 C1.465625 2.23792969 0.74375 1.62820313 0 1 C0 0.67 0 0.34 0 0 Z " fill="#1F1F1F" transform="translate(344,308)"/>
<path d="M0 0 C4.28477792 2.30718811 7.72291137 4.32966073 11 8 C7.66103832 8 6.59519111 7.40577375 3.8125 5.6875 C3.09707031 5.25824219 2.38164062 4.82898438 1.64453125 4.38671875 C1.10183594 3.92910156 0.55914062 3.47148437 0 3 C0 2.01 0 1.02 0 0 Z " fill="#1C1C1C" transform="translate(330,305)"/>
<path d="M0 0 C0.66 0 1.32 0 2 0 C1.814375 0.86625 1.62875 1.7325 1.4375 2.625 C0.83207827 5.97640696 0.83207827 5.97640696 1.5625 9.1875 C2 12 2 12 0 15 C-1.62093184 9.37441301 -2.72774696 5.45549392 0 0 Z " fill="#101010" transform="translate(439,430)"/>
<path d="M0 0 C0.66 0 1.32 0 2 0 C2 1.98 2 3.96 2 6 C2.33 6 2.66 6 3 6 C3 8.97 3 11.94 3 15 C-0.125 8.75 -0.125 8.75 -0.0625 4.375 C-0.05347656 3.55773437 -0.04445313 2.74046875 -0.03515625 1.8984375 C-0.02355469 1.27195312 -0.01195312 0.64546875 0 0 Z " fill="#161616" transform="translate(435,459)"/>
<path d="M0 0 C2.81645906 3.18382329 3.72317437 5.75534029 4 10 C3.34 10.66 2.68 11.32 2 12 C-1.57142857 4.71428571 -1.57142857 4.71428571 0 0 Z " fill="#202020" transform="translate(411,408)"/>
<path d="M0 0 C0.33 0 0.66 0 1 0 C1.16682272 4.92127034 1.24828052 8.50343896 -1 13 C-1.33 13 -1.66 13 -2 13 C-2.19294408 8.17639811 -1.75747614 4.50353262 0 0 Z " fill="#C9C9C9" transform="translate(429,377)"/>
<path d="M0 0 C3.68006822 3.38168431 5.9785845 6.42521756 8 11 C7.01 11.495 7.01 11.495 6 12 C4.98829382 10.75945552 3.99102203 9.5071298 3 8.25 C2.443125 7.55390625 1.88625 6.8578125 1.3125 6.140625 C0 4 0 4 0 0 Z " fill="#171717" transform="translate(392,353)"/>
<path d="M0 0 C1.32 0 2.64 0 4 0 C5.125 5.75 5.125 5.75 4 8 C3.34 8 2.68 8 2 8 C1.34 5.36 0.68 2.72 0 0 Z " fill="#F3F3F3" transform="translate(363,327)"/>
<path d="M0 0 C1.15224028 0.92961422 2.29659176 1.8690125 3.4375 2.8125 C4.07558594 3.33457031 4.71367187 3.85664063 5.37109375 4.39453125 C7 6 7 6 8 9 C7.01 9 6.02 9 5 9 C2.9375 6.625 2.9375 6.625 1 4 C0.34 3.34 -0.32 2.68 -1 2 C-0.67 1.34 -0.34 0.68 0 0 Z " fill="#242424" transform="translate(390,307)"/>
<path d="M0 0 C4.55015893 1.51671964 6.50057264 5.16891053 9 9 C8.34 9.66 7.68 10.32 7 11 C5.83051998 9.35616456 4.6644855 7.70987731 3.5 6.0625 C2.8503125 5.14597656 2.200625 4.22945313 1.53125 3.28515625 C0 1 0 1 0 0 Z " fill="#191919" transform="translate(375,386)"/>
<path d="M0 0 C0.66 0 1.32 0 2 0 C3.17673198 2.35346396 3.16623866 3.8806033 3.1875 6.5 C3.20167969 7.2940625 3.21585937 8.088125 3.23046875 8.90625 C3 11 3 11 1 13 C0.1276588 10.00519083 -0.10829766 7.36424089 -0.0625 4.25 C-0.05347656 3.45078125 -0.04445313 2.6515625 -0.03515625 1.828125 C-0.02355469 1.22484375 -0.01195312 0.6215625 0 0 Z " fill="#161616" transform="translate(429,376)"/>
<path d="M0 0 C2.61885488 2.36944013 4.41866551 4.83733102 6 8 C5.67 8.99 5.34 9.98 5 11 C2.65808437 8.8709858 1.16445046 6.95591271 0 4 C0 2.68 0 1.36 0 0 Z " fill="#202020" transform="translate(403,323)"/>
<path d="M0 0 C3.66881155 0.70554068 6.70450534 2.27735506 10 4 C9.67 4.66 9.34 5.32 9 6 C6.03 5.01 3.06 4.02 0 3 C0 2.01 0 1.02 0 0 Z " fill="#1E1E1E" transform="translate(276,274)"/>
<path d="M0 0 C2.97 0.99 5.94 1.98 9 3 C8.67 3.99 8.34 4.98 8 6 C1.25 3.25 1.25 3.25 -1 1 C-0.67 0.67 -0.34 0.34 0 0 Z " fill="#1C1C1C" transform="translate(245,230)"/>
<path d="M0 0 C4.04034106 1.34678035 5.97813557 3.97813557 9 7 C8.01 7.33 7.02 7.66 6 8 C4.17578125 6.78515625 4.17578125 6.78515625 2.3125 5.0625 C1.68988281 4.49660156 1.06726563 3.93070313 0.42578125 3.34765625 C-0.04472656 2.90292969 -0.51523438 2.45820313 -1 2 C-0.67 1.34 -0.34 0.68 0 0 Z " fill="#272727" transform="translate(167,228)"/>
<path d="M0 0 C2.6486859 3.19668988 4.93992341 6.39486597 7 10 C6.01 10.33 5.02 10.66 4 11 C2.35 7.7 0.7 4.4 -1 1 C-0.67 0.67 -0.34 0.34 0 0 Z " fill="#1B1B1B" transform="translate(403,369)"/>
<path d="M0 0 C3.3 1.65 6.6 3.3 10 5 C9.67 5.66 9.34 6.32 9 7 C5.00499382 5.6302836 2.19990508 3.74277578 -1 1 C-0.67 0.67 -0.34 0.34 0 0 Z " fill="#191919" transform="translate(292,249)"/>
<path d="M0 0 C4.95 1.98 4.95 1.98 10 4 C9.67 4.66 9.34 5.32 9 6 C6.03 5.01 3.06 4.02 0 3 C0 2.01 0 1.02 0 0 Z " fill="#111111" transform="translate(227,222)"/>
<path d="M0 0 C4.83256305 0.41421969 6.82679218 2.46413986 10 6 C9.01 6.495 9.01 6.495 8 7 C4.38269598 5.23772368 2.19924069 3.35673579 0 0 Z " fill="#212121" transform="translate(148,177)"/>
<path d="M0 0 C0.33 0.99 0.66 1.98 1 3 C0.67 3.66 0.34 4.32 0 5 C0.66 5 1.32 5 2 5 C1.67 5.99 1.34 6.98 1 8 C-0.98 5.69 -2.96 3.38 -5 1 C-3 0 -3 0 0 0 Z " fill="#353535" transform="translate(353,354)"/>
<path d="M0 0 C0.99 0 1.98 0 3 0 C3.66 3.3 4.32 6.6 5 10 C4.01 9.67 3.02 9.34 2 9 C1.26953125 6.93359375 1.26953125 6.93359375 0.8125 4.4375 C0.65394531 3.61121094 0.49539063 2.78492188 0.33203125 1.93359375 C0.16767578 0.97646484 0.16767578 0.97646484 0 0 Z " fill="#1C1C1C" transform="translate(412,346)"/>
<path d="M0 0 C0.66 0 1.32 0 2 0 C2 0.66 2 1.32 2 2 C2.66 2 3.32 2 4 2 C4.99 3.98 5.98 5.96 7 8 C6.01 8 5.02 8 4 8 C0 3.77142857 0 3.77142857 0 0 Z " fill="#232323" transform="translate(384,344)"/>
<path d="M0 0 C2.125 0.375 2.125 0.375 4 1 C4 1.66 4 2.32 4 3 C4.66 3 5.32 3 6 3 C5.67 3.99 5.34 4.98 5 6 C1.535 4.02 1.535 4.02 -2 2 C-1.34 1.34 -0.68 0.68 0 0 Z " fill="#242424" transform="translate(331,297)"/>
<path d="M0 0 C1.98 0.99 3.96 1.98 6 3 C5.67 4.32 5.34 5.64 5 7 C2.525 6.01 2.525 6.01 0 5 C0 3.35 0 1.7 0 0 Z " fill="#E1E1E1" transform="translate(311,288)"/>
<path d="M0 0 C2.4375 0.75 2.4375 0.75 5 2 C5.8125 4.125 5.8125 4.125 6 6 C3.83125748 5.49396008 2.00032373 5.00016187 0 4 C0 2.68 0 1.36 0 0 Z " fill="#ECECEC" transform="translate(306,286)"/>
<path d="M0 0 C2.9375 0.375 2.9375 0.375 6 1 C6.33 1.66 6.66 2.32 7 3 C4.36 3.66 1.72 4.32 -1 5 C-0.67 3.35 -0.34 1.7 0 0 Z " fill="#DADADA" transform="translate(201,251)"/>
<path d="M0 0 C2.3125 0.1875 2.3125 0.1875 5 1 C6.875 3.375 6.875 3.375 8 6 C7.67 6.99 7.34 7.98 7 9 C5.83037314 7.69013727 4.66437056 6.3770374 3.5 5.0625 C2.8503125 4.33160156 2.200625 3.60070312 1.53125 2.84765625 C0 1 0 1 0 0 Z " fill="#252525" transform="translate(152,214)"/>
<path d="M0 0 C2.2477975 2.05233685 3.0022242 3.00667261 4 6 C3.01 6 2.02 6 1 6 C0.34 6.66 -0.32 7.32 -1 8 C-1.04241723 5.66705225 -1.04092937 3.33297433 -1 1 C-0.67 0.67 -0.34 0.34 0 0 Z " fill="#232323" transform="translate(422,346)"/>
<path d="M0 0 C2.64 1.98 5.28 3.96 8 6 C7.67 6.66 7.34 7.32 7 8 C4.13792848 6.71700242 1.9754912 5.469364 0 3 C0 2.01 0 1.02 0 0 Z " fill="#1B1B1B" transform="translate(382,300)"/>
<path d="M0 0 C3.3 0.99 6.6 1.98 10 3 C9.34 3.66 8.68 4.32 8 5 C4.82719649 4.56237193 1.94332389 3.22638495 -1 2 C-0.67 1.34 -0.34 0.68 0 0 Z " fill="#222222" transform="translate(280,244)"/>
<path d="M0 0 C2.25 -0.3125 2.25 -0.3125 5 0 C7.3125 2.5 7.3125 2.5 9 5 C4.98525763 5 3.18024863 3.33218233 0 1 C0 0.67 0 0.34 0 0 Z " fill="#202020" transform="translate(312,325)"/>
<path d="M0 0 C4.455 1.98 4.455 1.98 9 4 C9 4.33 9 4.66 9 5 C6.03 4.67 3.06 4.34 0 4 C-0.33 3.01 -0.66 2.02 -1 1 C-0.67 0.67 -0.34 0.34 0 0 Z " fill="#1D1D1D" transform="translate(215,216)"/>
<path d="M0 0 C0.33 0.66 0.66 1.32 1 2 C1.66 2 2.32 2 3 2 C3.33 4.31 3.66 6.62 4 9 C3.01 9.495 3.01 9.495 2 10 C1.46987262 8.71211992 0.9511671 7.41953322 0.4375 6.125 C0.14746094 5.40570313 -0.14257812 4.68640625 -0.44140625 3.9453125 C-1 2 -1 2 0 0 Z " fill="#141414" transform="translate(420,401)"/>
<path d="M0 0 C0.66 0.33 1.32 0.66 2 1 C2.33333333 2.66666667 2.66666667 4.33333333 3 6 C3.66 6.33 4.32 6.66 5 7 C4.01 7.66 3.02 8.32 2 9 C0.4375 6.1875 0.4375 6.1875 -1 3 C-0.67 2.01 -0.34 1.02 0 0 Z " fill="#1B1B1B" transform="translate(413,386)"/>
<path d="M0 0 C2.97 1.65 5.94 3.3 9 5 C8.34 5.66 7.68 6.32 7 7 C3.535 5.02 3.535 5.02 0 3 C0 2.01 0 1.02 0 0 Z " fill="#141414" transform="translate(321,299)"/>
<path d="M0 0 C2 1 2 1 3.1875 3.3125 C4.03624754 6.11989571 3.99928333 7.301935 3 10 C0.59185923 6.48812804 -0.36629408 4.27343092 0 0 Z " fill="#CECECE" transform="translate(343,283)"/>
<path d="M0 0 C0.99 0.66 1.98 1.32 3 2 C2.67 3.32 2.34 4.64 2 6 C0.68 6.33 -0.64 6.66 -2 7 C-2 5.35 -2 3.7 -2 2 C-1.34 2 -0.68 2 0 2 C0 1.34 0 0.68 0 0 Z " fill="#4C4C4C" transform="translate(255,275)"/>
<path d="M0 0 C3.77545388 1.09068668 6.47043472 1.9083091 9 5 C8.01 5.495 8.01 5.495 7 6 C3.9375 4.75 3.9375 4.75 1 3 C0.67 2.01 0.34 1.02 0 0 Z " fill="#1C1C1C" transform="translate(248,255)"/>
<path d="M0 0 C3.3 1.65 6.6 3.3 10 5 C9.34 5.66 8.68 6.32 8 7 C1.125 3.375 1.125 3.375 0 0 Z " fill="#171717" transform="translate(183,200)"/>
<path d="M0 0 C1.9375 0.6875 1.9375 0.6875 4 2 C4.75 4.625 4.75 4.625 5 7 C4.01 7.495 4.01 7.495 3 8 C0 2.25 0 2.25 0 0 Z " fill="#181818" transform="translate(126,170)"/>
<path d="M0 0 C0.66 0 1.32 0 2 0 C2.66 1.98 3.32 3.96 4 6 C3.34 6.66 2.68 7.32 2 8 C0.23537317 4.91190305 0 3.76687864 0 0 Z " fill="#1B1B1B" transform="translate(409,336)"/>
<path d="M0 0 C0.99 0 1.98 0 3 0 C4.6875 2 4.6875 2 6 4 C5.34 5.32 4.68 6.64 4 8 C2.68 5.36 1.36 2.72 0 0 Z " fill="#1E1E1E" transform="translate(134,187)"/>
<path d="M0 0 C0.66 0.66 1.32 1.32 2 2 C1.67028521 5.29714793 1.3773161 6.6226839 -1 9 C-1.33 7.68 -1.66 6.36 -2 5 C-1.34 5 -0.68 5 0 5 C-0.33 4.01 -0.66 3.02 -1 2 C-0.67 1.34 -0.34 0.68 0 0 Z " fill="#262626" transform="translate(441,521)"/>
<path d="M0 0 C1.32 0.66 2.64 1.32 4 2 C4 2.66 4 3.32 4 4 C4.66 4.33 5.32 4.66 6 5 C5.01 5.33 4.02 5.66 3 6 C0.8125 4.5625 0.8125 4.5625 -1 3 C-0.67 2.01 -0.34 1.02 0 0 Z " fill="#333333" transform="translate(404,425)"/>
<path d="M0 0 C3.26460973 1.80412643 4.88929795 2.83394693 7 6 C3.20411134 5.45773019 1.52788007 3.79872437 -1 1 C-0.67 0.67 -0.34 0.34 0 0 Z " fill="#171717" transform="translate(342,314)"/>
<path d="M0 0 C4.75 0.875 4.75 0.875 7 2 C7 2.66 7 3.32 7 4 C4.03 3.505 4.03 3.505 1 3 C0.67 2.01 0.34 1.02 0 0 Z " fill="#E1E1E1" transform="translate(269,268)"/>
<path d="M0 0 C5.75 1.75 5.75 1.75 8 4 C5 5 5 5 1.8125 3.5625 C0.884375 3.046875 -0.04375 2.53125 -1 2 C-0.67 1.34 -0.34 0.68 0 0 Z " fill="#202020" transform="translate(269,265)"/>
<path d="M0 0 C3.465 1.98 3.465 1.98 7 4 C6.34 4.66 5.68 5.32 5 6 C2.875 5.625 2.875 5.625 1 5 C1 4.34 1 3.68 1 3 C0.34 2.34 -0.32 1.68 -1 1 C-0.67 0.67 -0.34 0.34 0 0 Z " fill="#191919" transform="translate(303,255)"/>
<path d="M0 0 C2.31 0.66 4.62 1.32 7 2 C6.01 3.485 6.01 3.485 5 5 C3.02 4.01 1.04 3.02 -1 2 C-0.67 1.34 -0.34 0.68 0 0 Z " fill="#151515" transform="translate(257,235)"/>
<path d="M0 0 C4.455 1.98 4.455 1.98 9 4 C8.01 4.66 7.02 5.32 6 6 C3.96166576 4.7260411 1.96147874 3.38938077 0 2 C0 1.34 0 0.68 0 0 Z " fill="#262626" transform="translate(199,208)"/>
<path d="M0 0 C3.26954202 0.56371414 4.82575883 1.49962266 7 4 C3 4 3 4 0 2 C0 1.34 0 0.68 0 0 Z " fill="#181818" transform="translate(160,186)"/>
<path d="M0 0 C2.9375 0.75 2.9375 0.75 6 2 C6.875 4.125 6.875 4.125 7 6 C3.73539027 4.19587357 2.11070205 3.16605307 0 0 Z " fill="#E5E5E5" transform="translate(141,168)"/>
<path d="M0 0 C3 3.625 3 3.625 3 7 C2.01 6.67 1.02 6.34 0 6 C-0.38218767 4.34385343 -0.71395102 2.67542976 -1 1 C-0.67 0.67 -0.34 0.34 0 0 Z " fill="#232323" transform="translate(401,385)"/>
<path d="M0 0 C0.99 1.32 1.98 2.64 3 4 C2.34 5.32 1.68 6.64 1 8 C-0.42944945 5.64561267 -1.08661261 4.51967567 -0.625 1.75 C-0.41875 1.1725 -0.2125 0.595 0 0 Z " fill="#262626" transform="translate(436,372)"/>
<path d="M0 0 C2.96865509 2.54456151 4.3619751 5.48994665 6 9 C5.01 9.495 5.01 9.495 4 10 C3.32845067 8.71086513 2.66291141 7.41859796 2 6.125 C1.62875 5.40570313 1.2575 4.68640625 0.875 3.9453125 C0 2 0 2 0 0 Z " fill="#252525" transform="translate(389,365)"/>
<path d="M0 0 C2.64 0.99 5.28 1.98 8 3 C6.25 4.125 6.25 4.125 4 5 C1.75 4.125 1.75 4.125 0 3 C0 2.01 0 1.02 0 0 Z " fill="#1A1A1A" transform="translate(332,336)"/>
<path d="M0 0 C1.32 0.66 2.64 1.32 4 2 C3.01 2.33 2.02 2.66 1 3 C0.67 3.66 0.34 4.32 0 5 C-0.99 4.01 -1.98 3.02 -3 2 C-2.01 1.34 -1.02 0.68 0 0 Z " fill="#DCDCDC" transform="translate(324,296)"/>
<path d="M0 0 C1.98 1.65 3.96 3.3 6 5 C5.34 5.66 4.68 6.32 4 7 C2 5.1875 2 5.1875 0 3 C0 2.01 0 1.02 0 0 Z " fill="#323232" transform="translate(318,266)"/>
</svg>
